<?xml version="1.0" encoding="UTF-8"?>
<svg id="Design" xmlns="http://www.w3.org/2000/svg" viewBox="0 0 117 117">
  <path d="M102.47,20.31l-7.42-7.18c-1.44-1.24-3.27-1.93-5.17-1.93H27.12c-1.9,0-3.74.68-5.17,1.93l-7.42,7.1c-1.73,1.5-2.73,3.68-2.73,5.97v64.53c0,2.29.99,4.47,2.73,5.97l7.42,7.18c1.44,1.24,3.27,1.93,5.17,1.93h62.76c1.9,0,3.73-.68,5.17-1.93l7.42-7.18c1.73-1.5,2.73-3.68,2.73-5.97V26.28c0-2.29-.99-4.47-2.73-5.97ZM92.87,89.92l-3.49,3.54c-.54.54-1.27.85-2.04.85H29.66c-.77,0-1.5-.31-2.04-.85l-3.49-3.54c-.53-.54-.83-1.26-.83-2.01V29.03c0-.76.3-1.49.84-2.03l3.48-3.47c.54-.54,1.26-.84,2.02-.84h57.69c.77,0,1.5.31,2.04.85l3.49,3.54c.53.54.83,1.26.83,2.01v58.8c0,.75-.3,1.48-.83,2.01Z"/>
  <path d="M31.64,76.04v9.93h11.58v-22.95l-10.7,10.7c-.55.66-.88,1.43-.88,2.32Z"/>
  <path d="M38.81,32.25l-5.96,5.96c-.88.88-1.21,1.99-1.21,3.09v10.59c0,1.1.33,2.21,1.21,2.98l5.96,5.96c.77.88,1.88,1.32,3.09,1.32h39.93v-11.47h-36.84c-.97,0-1.77-.79-1.77-1.77v-4.63c0-.97.79-1.77,1.77-1.77h40.37v-11.47h-43.46c-1.21,0-2.32.44-3.09,1.21Z"/>
</svg>